<svg version="1.1" xmlns="http://www.w3.org/2000/svg" xmlns:xlink="http://www.w3.org/1999/xlink" width="43.58001" height="18.9889" viewBox="0,0,43.58001,18.9889"><defs><linearGradient x1="218.21002" y1="180.00007" x2="261.78986" y2="180.00007" gradientUnits="userSpaceOnUse" id="color-1"><stop offset="0" stop-color="#27aae1"/><stop offset="1" stop-color="#115489"/></linearGradient><linearGradient x1="219.84513" y1="180.00007" x2="260.15419" y2="180.00007" gradientUnits="userSpaceOnUse" id="color-2"><stop offset="0" stop-color="#2f7eba"/><stop offset="0.506" stop-color="#3f9dd6"/><stop offset="1" stop-color="#3e97d1"/></linearGradient></defs><g transform="translate(-218.20999,-170.50555)"><g data-paper-data="{&quot;isPaintingLayer&quot;:true}" fill-rule="nonzero" stroke="none" stroke-width="1" stroke-linecap="butt" stroke-linejoin="miter" stroke-miterlimit="10" stroke-dasharray="" stroke-dashoffset="0" style="mix-blend-mode: normal"><path d="M261.79001,179.99982c0,5.23541 -4.25959,9.49463 -9.49463,9.49463h-24.59111c-5.23505,0 -9.49427,-4.25886 -9.49427,-9.49463c0,-5.23505 4.25886,-9.49427 9.49427,-9.49427h24.59112c5.23505,0 9.49463,4.25922 9.49463,9.49427z" fill="url(#color-1)"/><path d="M260.1543,179.99982c0,4.34057 -3.51835,7.8593 -7.85894,7.8593h-24.59111c-4.34057,0 -7.8593,-3.51873 -7.8593,-7.8593v0c0,-4.34021 3.51873,-7.85894 7.8593,-7.85894h24.59112c4.34057,0 7.85894,3.51873 7.85894,7.85894z" fill="url(#color-2)"/><text transform="translate(220.46051,183.07342) scale(0.30657,0.25422)" font-size="40" xml:space="preserve" fill="#000000" fill-rule="nonzero" stroke="none" stroke-width="1" stroke-linecap="butt" stroke-linejoin="miter" stroke-miterlimit="10" stroke-dasharray="" stroke-dashoffset="0" font-family="Sans Serif" font-weight="normal" text-anchor="start" style="mix-blend-mode: normal"><tspan x="0" dy="0">reboot</tspan></text></g></g></svg>