<svg version="1.1" xmlns="http://www.w3.org/2000/svg" xmlns:xlink="http://www.w3.org/1999/xlink" width="64.95502" height="17.92752" viewBox="0,0,64.95502,17.92752"><defs><linearGradient x1="218.21003" y1="179.46938" x2="283.16479" y2="179.46938" gradientUnits="userSpaceOnUse" id="color-1"><stop offset="0" stop-color="#27aae1"/><stop offset="1" stop-color="#115489"/></linearGradient><linearGradient x1="220.64713" y1="179.46938" x2="280.72686" y2="179.46938" gradientUnits="userSpaceOnUse" id="color-2"><stop offset="0" stop-color="#2f7eba"/><stop offset="0.506" stop-color="#3f9dd6"/><stop offset="1" stop-color="#3e97d1"/></linearGradient></defs><g transform="translate(-218.21,-170.50555)"><g stroke="none" stroke-miterlimit="10"><path d="M283.16501,179.46914c0,4.94278 -6.34882,8.96393 -14.15153,8.96393h-36.65249c-7.80272,0 -14.15099,-4.02081 -14.15099,-8.96393c0,-4.94244 6.34773,-8.96359 14.15099,-8.96359h36.6525c7.80272,0 14.15153,4.02115 14.15153,8.96359z" fill="url(#color-1)"/><path d="M280.72701,179.46914c0,4.09795 -5.24401,7.42001 -11.71356,7.42001h-36.65249c-6.46952,0 -11.71411,-3.32205 -11.71411,-7.42001v0c0,-4.09761 5.24459,-7.41967 11.71411,-7.41967h36.6525c6.46952,0 11.71357,3.32205 11.71357,7.41967z" fill="url(#color-2)"/><text transform="translate(220.46052,183.07342) scale(0.30657,0.25422)" font-size="40" xml:space="preserve" fill="#000000" font-family="Sans Serif" font-weight="normal" text-anchor="start"><tspan x="0" dy="0">shutdown</tspan></text></g></g></svg>